<?xml version="1.0" encoding="UTF-8"?><svg id="Layer_1" xmlns="http://www.w3.org/2000/svg" viewBox="0 0 374.17 416.69"><defs><style>.cls-1,.cls-2{fill:#a39b89;}.cls-2{opacity:.5;}</style></defs><path class="cls-1" d="M31.64,264.17l-4.87-11.89c-1.7-4.16-1.72-8.47,2.41-10.17,1.56-.65,3.62-.18,4.85.91-.55-2.95.67-5.87,3.5-7.03,4.56-1.88,8.37,1.45,10.65,7.01l5.03,12.28-21.56,8.9ZM35.18,249.26c-.78-1.9-1.96-2.51-3.26-1.97-1.3.54-1.78,1.83-.95,3.85l2.43,5.95,4.26-1.76-2.48-6.06ZM44.29,244.91c-1.07-2.6-2.58-4.02-4.51-3.23-1.96.81-2.16,2.8-1.17,5.21l2.82,6.88,5.56-2.29-2.69-6.57Z"/><path class="cls-1" d="M19.08,229.26l-1.06-5.78,18.69-3.47-2.84-15.49,4.25-.79,3.9,21.27-22.94,4.26Z"/><path class="cls-1" d="M25.74,197.7c-6.66-.19-11.85-6.34-11.62-14.73.23-8.4,5.75-14.25,12.41-14.06,6.69.19,11.89,6.34,11.66,14.74-.23,8.39-5.75,14.25-12.45,14.06ZM26.35,175.03c-4.14-.12-7.54,3.28-7.67,8.02-.13,4.74,3.08,8.4,7.22,8.52,4.17.12,7.58-3.32,7.71-8.1.13-4.74-3.09-8.32-7.26-8.44Z"/><path class="cls-1" d="M28.09,159.33c-6.42-1.64-10.15-8.75-8.09-16.9.92-3.62,2.79-6.61,5.2-8.51l2.39,4.34c-1.78,1.45-2.63,3.19-3.08,4.98-1.22,4.8,1.1,9.13,5.08,10.14,4.05,1.04,8.16-1.55,9.34-6.24.62-2.44.38-4.89-.74-6.91l4.32-2.67c1.45,3.06,1.84,6.8.82,10.83-2.06,8.14-8.73,12.59-15.25,10.92Z"/><path class="cls-1" d="M27.17,121.37l2.6-5.27,11.61,5.76c-.15-.26-1.1-2.24-1.64-3.58l-5.04-12.16,3.03-6.14,5.35,13.25,16.07-3.93-3.05,6.18-11.3,2.65,2.42,6.64,3.45,1.71-2.6,5.27-20.89-10.37Z"/><path class="cls-1" d="M44.84,89.09l3.62-4.63,14.94,11.75,9.69-12.41,3.4,2.67-13.31,17.04-18.33-14.43Z"/><path class="cls-1" d="M66.56,63.41l16.09-13.95,2.81,3.28-11.65,10.1,3.1,3.61,11.04-9.57,2.79,3.25-11.04,9.57,3.68,4.29,12.09-10.48,2.81,3.28-16.54,14.33-15.2-17.7Z"/><path class="cls-1" d="M106.89,49.04l-15.12-6.2,5.87-3.27,6.53,2.71c1.67.68,3.22,1.58,3.22,1.58,0,0,.15-1.9.41-3.61l1.03-6.92,5.87-3.27-2.69,16.09,5.11,9.27-5.14,2.86-5.09-9.24Z"/><path class="cls-1" d="M141.49,20.54l5.75-1.2,3.88,18.61,15.42-3.22.88,4.23-21.17,4.42-4.76-22.84Z"/><path class="cls-1" d="M173.23,26.28c.04-6.66,6.08-11.92,14.47-11.79,8.4.14,14.37,5.6,14.33,12.26-.04,6.7-6.08,11.96-14.47,11.82-8.4-.14-14.37-5.6-14.33-12.29ZM195.91,26.65c.03-4.14-3.44-7.51-8.19-7.59-4.75-.08-8.33,3.18-8.36,7.32-.02,4.17,3.48,7.54,8.27,7.62,4.75.08,8.25-3.18,8.27-7.35Z"/><path class="cls-1" d="M215.72,16.85l10.6,2.6c8.69,2.13,12.9,8.61,11.39,14.8s-8.23,9.99-16.92,7.86l-10.6-2.6,5.53-22.66ZM221.57,37.86c5.06,1.24,9.13-.95,10.14-5.08,1-4.09-1.6-7.95-6.66-9.19l-4.65-1.14-3.48,14.27,4.65,1.14Z"/><path class="cls-1" d="M246.81,37.59c2.98-5.96,10.71-8.06,18.2-4.27,3.41,1.73,5.89,4.27,7.28,7.04l-4.79,1.41c-1.04-2.14-2.59-3.37-4.42-4.3-4.24-2.14-8.94-.81-10.8,2.89-1.87,3.74-.21,8.29,4.1,10.47,2.32,1.18,4.72,1.26,6.63.73l1.53-3.06-4.12-2.09,1.64-3.28,8.92,4.51-4.06,8.11c-3.51,1.66-8.28,1.34-12.67-.88-7.5-3.79-10.45-11.3-7.45-17.29Z"/><path class="cls-1" d="M287.16,46.96l16.52,13.44-2.71,3.36-11.96-9.73-2.98,3.7,11.34,9.22-2.69,3.34-11.34-9.22-3.55,4.4,12.41,10.1-2.71,3.36-16.97-13.81,14.63-18.16Z"/><path class="cls-1" d="M323.67,82.27l3.1,4.7-4.08,13.95c-.64,2.24-1.79,5.07-1.79,5.07l12.8-8.51,3.24,4.91-19.43,12.91-3.12-4.73,3.88-13.47c.75-2.66,1.89-5.44,1.89-5.44l-12.68,8.43-3.24-4.91,19.43-12.91Z"/><path class="cls-1" d="M324.65,123.7c.92-.41,2.05.12,2.53,1.2.48,1.08.12,2.28-.8,2.69-.92.41-2.05-.12-2.53-1.2-.48-1.07-.12-2.28.8-2.69ZM331.37,112.57c4.1-1.84,8.83.33,11.12,5.5,2.3,5.17.74,10.12-3.37,11.96-4.13,1.85-8.84-.29-11.13-5.46-2.3-5.17-.75-10.15,3.38-12ZM337.26,125.82c2.36-1.06,3.26-3.73,2.1-6.34-1.16-2.61-3.75-3.75-6.12-2.69-2.36,1.06-3.28,3.77-2.12,6.38,1.16,2.61,3.77,3.71,6.13,2.65Z"/><path class="cls-1" d="M340.13,153.58c2.21-.34,4.59.27,6.69,1.6l10.67,6.72-1.89,4.8-6.02-3.87c.07.24.16.57.19.78.8,5.27-2.06,9.67-6.29,10.32-4.77.74-9.02-2.56-9.99-8.91s1.97-10.72,6.63-11.44ZM342.39,168.15c2.13-.33,3.61-2.34,3.21-5-.41-2.7-2.41-4.09-4.54-3.76-2.28.35-3.78,2.2-3.35,4.98.42,2.74,2.41,4.13,4.69,3.78Z"/><path class="cls-1" d="M338.18,181.73l3.25,2.49c-1.42,1.72-1.99,4.19-2.05,6.41-.1,3.53,1.35,5.96,3.72,6.03,1.83.05,3.4-1.88,3.49-5.28.04-1.39-.11-2.52-.72-3.89l2.89-1.81,5.75,8.39.29-10.49,4.28.12-.48,17.71-4.14-.12-4.68-6.6c-.06.75-.22,1.46-.42,2.17-.92,3.33-3.29,5.71-6.6,5.61-5.29-.15-7.74-5.34-7.57-11.47.11-3.95,1.24-7.19,2.99-9.28Z"/><path class="cls-1" d="M336.02,223.26l2.75-12.51,3.2.71,13.69,13.5-2.98,4.16-11.15-11-1.33,6.07,4.96,1.1-1.16,5.29-4.96-1.1-.69,3.16-4.18-.93.69-3.16-4.39-.98,1.16-5.29,4.39.98Z"/><path class="cls-1" d="M329.38,238.27l2.44,3.38c-1.5.96-3.26,3.08-4.17,5.2-1.48,3.48-.51,5.81,1.27,6.58,2.28.98,4.44-.97,5.76-4.07.76-1.78.93-3.76.86-5.07l2.29-1.26,10.72,4.59-6.79,15.96-3.94-1.69,4.58-10.78-3.94-1.69c-.15.99-.44,2.05-.88,3.09-2.12,4.99-6.26,8.28-10.73,6.37-4.6-1.97-5.71-7.38-3.09-13.52,1.46-3.44,3.51-5.76,5.6-7.1Z"/><path class="cls-1" d="M95.29,369.75c2.66-6.1,10.05-8.73,17.38-5.53s10.43,10.41,7.76,16.51c-2.68,6.14-10.07,8.76-17.4,5.56-7.33-3.2-10.42-10.41-7.75-16.54ZM115.08,378.39c1.66-3.79-.06-8.16-4.2-9.97-4.14-1.81-8.58-.13-10.24,3.66-1.67,3.83.08,8.21,4.26,10.03,4.14,1.81,8.51.1,10.18-3.72Z"/><path class="cls-1" d="M135.42,384.75l-5.88-13.4,6.22,1.51,3.67,9.3,7.88-6.5,5.98,1.46-11.41,9.19,6.25,13.56-6.3-1.53-4.03-9.5-8.1,6.55-6.02-1.46,11.74-9.19Z"/><path class="cls-1" d="M160.55,378.03l19.32,1.72-.38,4.3-13.75-1.22-.42,4.73,11.71,1.04-.38,4.27-11.71-1.04-.88,9.93-5.58-.5,2.06-23.24Z"/><path class="cls-1" d="M186.05,391.68c-.43-6.65,4.94-12.36,12.92-12.87s14.03,4.48,14.46,11.12c.43,6.68-4.94,12.4-12.92,12.91-7.98.51-14.04-4.48-14.46-11.16ZM207.61,390.3c-.26-4.13-3.79-7.22-8.3-6.94-4.51.29-7.69,3.81-7.43,7.94.27,4.17,3.83,7.26,8.38,6.97,4.51-.29,7.61-3.8,7.34-7.97Z"/><path class="cls-1" d="M220.58,376.87l10.81-2.6c7.43-1.79,12.26,1.2,13.43,6.06.7,2.91-.3,6.11-3.05,8.36l6.86,5.42-6.26,1.51-5.17-4.38c-.71.28-1.36.51-2.1.69l-4.86,1.17,1.24,5.15-5.45,1.31-5.46-22.68ZM234.76,387.56c3.19-.77,4.91-3.37,4.31-5.85-.62-2.59-3.33-4.09-6.48-3.33l-5.56,1.34,2.21,9.17,5.52-1.33Z"/><path class="cls-1" d="M250.25,369.01l9.51-4.2c7.79-3.44,14.83-.76,17.4,5.07s-.2,12.84-7.99,16.28l-9.51,4.2-9.41-21.35ZM267.22,382.31c4.54-2,6.29-6.16,4.57-10.05-1.7-3.85-5.96-5.4-10.5-3.4l-4.17,1.84,5.93,13.44,4.17-1.84Z"/><path class="cls-1" d="M356.78,334.24c.28-1.69-.21-11.29-11.67-11.48-9.32-.15-11.34,3.92-17.91,4.85-5,.7-12.83-.93-10.13-5.97,35.21-34.02,57.11-81.72,57.11-134.54C374.17,83.76,290.41,0,187.09,0S0,83.76,0,187.09c0,52.82,21.9,100.52,57.1,134.54,2.71,5.04-5.13,6.68-10.13,5.98-6.57-.93-8.59-5-17.91-4.85-11.46.19-11.95,9.79-11.67,11.48-6.31-1.51-11.76,1.22-12.8,6.31-1.1,5.41,1.79,9.04,6.78,12.52,6.61,4.61,17.22,4.42,17.51,4.42-8.38,12.99-7.93,22.87-7.81,27.11.14,5.04,3.95,19.69,20.05,19.53,14.02-.14,19.67-8.94,21.08-15.53.47-2.19.81-6.75.44-8.52,0,0,0,0,0,0,35.86,23.17,78.59,36.63,124.46,36.63s88.6-13.46,124.45-36.63c0,0,0,0,0,0-.38,1.78-.03,6.34.44,8.52,1.41,6.59,7.06,15.39,21.08,15.53,16.09.16,19.91-14.49,20.05-19.53.12-4.24.56-14.12-7.81-27.11.28,0,10.9.19,17.51-4.42,4.99-3.48,7.88-7.1,6.78-12.52-1.04-5.08-6.49-7.81-12.8-6.31ZM329.55,333.03c.89-.95,1.93-1.88,3.04-2.57.29-.18.71-.4,1.07-.3.17.05.32.2.3.37,0,.08-.05.16-.1.23-.08.12-.17.24-.27.35-.39.45-.88.82-1.26,1.28-.55.64-1.04,1.33-1.46,2.05-1.2,2.05-2.14,4.05-2.35,6.44-.46,5.27,1.04,10.82,3.47,15.48,1.26,2.42,2.65,4.77,3.98,7.15,2.49,4.43,5.18,9.1,5.12,14.35-.04,3.11-.93,7.31-3.53,9.35-2.1,1.65-5.06,2.31-7.47.97-.94-.52-1.88-1.22-2.78-2.92-1.71-3.24-.27-7.86,3.08-9.43,2.21-1.04,4.49.48,4.92,2.77.19.99,0,2.08-.8,2.77-.87.76-2.03,1.03-2.96,1.7-.85.61-1.09,1.84-.45,2.7,1.21,1.64,3.83.56,5.2-.51,1.74-1.36,2.78-4.33,2.31-8.52-.51-4.53-3.06-7.91-5.74-12.28-2.87-4.69-6.35-9.4-7.26-16.03-.53-3.83-.35-7.77,1.26-11.34.67-1.49,1.57-2.86,2.68-4.05ZM320.2,335.87c.63-1.66,1.5-3.15,2.81-4.4,1.85-1.58,4.15,1.01,2.43,2.71-2.7,2.92-3.71,7.03-3.45,10.99.06.46.2,1.67.25,2.11.31,1.63.8,3.31,1.32,4.89,0,0,1.1,2.73,1.1,2.73.13.26.01.58-.26.69-.23.09-.49,0-.62-.21l-1.55-2.62c-.8-1.55-1.55-3.3-2.1-4.97-1.13-3.84-1.41-8.08.07-11.91ZM317.14,333.65c-2.23,2.96-1.54,7.51-.65,11.04.17.57-.64.91-.92.39-1.76-3.09-3.12-6.53-2.68-10.2.22-1.44.72-2.88,1.84-3.94,1.81-1.56,4.17,1.09,2.42,2.71ZM59.45,330.93c1.12,1.06,1.62,2.49,1.84,3.94.44,3.67-.92,7.11-2.68,10.2-.28.52-1.1.18-.92-.39.89-3.53,1.57-8.08-.65-11.04-1.75-1.62.61-4.27,2.42-2.71ZM51.17,331.47c1.3,1.25,2.18,2.74,2.81,4.4,1.48,3.83,1.2,8.08.07,11.91-.55,1.66-1.3,3.42-2.1,4.97l-1.55,2.62c-.12.21-.39.3-.62.21-.27-.11-.39-.43-.26-.69,0,0,1.1-2.73,1.1-2.73.52-1.58,1.01-3.26,1.32-4.89.05-.45.2-1.65.25-2.11.26-3.95-.75-8.07-3.45-10.99-1.72-1.69.58-4.28,2.43-2.71ZM40.51,330.16c.36-.1.77.12,1.07.3,1.11.69,2.15,1.62,3.04,2.57,1.11,1.19,2.02,2.57,2.68,4.05,1.61,3.58,1.79,7.51,1.26,11.34-.91,6.63-4.39,11.34-7.26,16.03-2.68,4.38-5.23,7.75-5.74,12.28-.47,4.19.56,7.15,2.31,8.52,1.37,1.07,3.99,2.15,5.2.51.63-.85.39-2.09-.45-2.7-.93-.67-2.09-.94-2.96-1.7-.79-.69-.99-1.78-.8-2.77.44-2.3,2.71-3.81,4.92-2.77,3.35,1.57,4.79,6.19,3.08,9.43-.89,1.69-1.84,2.4-2.78,2.92-2.41,1.33-5.37.68-7.47-.97-2.59-2.04-3.49-6.24-3.53-9.35-.06-5.25,2.63-9.91,5.12-14.35,1.34-2.38,2.72-4.73,3.98-7.15,2.43-4.65,3.93-10.21,3.47-15.48-.21-2.39-1.15-4.39-2.35-6.44-.42-.73-.91-1.42-1.46-2.05-.39-.45-.87-.82-1.26-1.28-.1-.11-.18-.23-.27-.35-.05-.07-.09-.14-.1-.23-.02-.17.13-.33.3-.37ZM364.2,345.97c-1.6,2.64-4.28,4.55-7.7,5.87-3.67,1.41-6.29,1.62-9.74.79-2.94-.71-5.3-3.72-5.66-6.7-.76-6.25,2.83-7.05,5.15-8.45,2.38-1.44,3.2-4.85.05-6.31-1.84-.85-4.15.02-5.6,1.22-1.77,1.47-3.12,3.71-3.85,5.87-.46,1.36-.71,2.8-.77,4.23-.23,5.39,1.91,10.23,4.35,14.9,2.37,4.55,5.36,8.93,6.58,13.98,1.2,4.99,1.4,10.47-.37,15.35-1.54,4.26-4.8,8.27-9.13,9.89-1.28.48-2.64.73-4,.73-7.11,0-10.26-2.93-11.65-4.59-.54-.64-1.08-1.44-1.59-2.37-3.6-6.63-1.86-14.91,3.83-19.88.31-.27.61-.53.89-.79.7-.63.71-1.7.07-2.4-4.15-4.55-7.5-1.34-12.36,2.08-12.33,8.51-25.5,15.75-39.43,21.64-27.28,11.54-56.27,17.39-86.16,17.39s-58.87-5.85-86.16-17.39c-13.98-5.91-27.2-13.19-39.58-21.74-4.79-3.39-8.11-6.48-12.22-1.98-.64.7-.63,1.77.07,2.4.28.25.58.52.89.79,5.69,4.96,7.43,13.24,3.83,19.88-.51.93-1.05,1.73-1.59,2.37-1.39,1.66-4.54,4.59-11.65,4.59-1.37,0-2.73-.25-4-.73-4.33-1.62-7.58-5.63-9.13-9.89-1.77-4.88-1.57-10.36-.37-15.35,1.22-5.05,4.2-9.43,6.58-13.98,2.43-4.67,4.58-9.51,4.35-14.9-.06-1.44-.31-2.87-.77-4.23-.74-2.16-2.09-4.4-3.85-5.87-1.44-1.2-3.76-2.07-5.6-1.22-3.15,1.46-2.33,4.87.05,6.31,2.31,1.4,5.91,2.19,5.15,8.45-.36,2.98-2.73,6-5.66,6.7-3.45.83-6.07.62-9.74-.79-3.42-1.32-6.11-3.23-7.7-5.87-1.25-2.07-1.1-5.2,1-6.63,2.66-1.82,6.25-.56,7.65,1.93.61,1.08,1.16,2.1,1.9,3.06,1.12,1.44,4.35,1.48,4.63-.72.15-1.19-.77-1.77-1.54-2.46-.88-.79-1.48-1.98-1.85-3.11-1.05-3.17-.94-5.36.16-7.28,1.47-2.56,4.22-3.78,6.62-3.78,1.9,0,4.89.56,7.11,2.35,2.21,1.79,4.96,6.03,5.85,10.79.73,3.89.43,7.82-.88,11.55-1.74,4.97-4.51,9.48-6.75,14.22-1.17,2.48-2.19,5.06-2.79,7.74-.65,2.88-.76,5.92-.11,8.81.97,4.37,3.66,7.87,8.03,9.15,2.33.68,5.44.33,7.44-.98,3.72-2.44,5.29-7.14,4.22-11.38-.56-2.22-1.75-4.11-3.34-5.74-1.3-1.34-2.43-2.56-2.85-4.67-.28-1.41.28-3.35,1.69-5.18,3.08-3.99,6.93-5.4,10.7-8.66,1.35-1.17,3.62-4.16,4.41-5.75,1.41-2.84,2.1-5.05,3.32-8.02,2.45-5.96,8.8-5.47,9.85-4.74,0,0-.01-.02-.02-.03,28.57,21.58,63.52,35.16,101.53,37.4l-5.18-5.18.02-.02-3.84-3.84c-40.15-4.47-77.34-22.27-106.32-51.25-33.78-33.78-52.38-78.69-52.38-126.46S26.85,94.41,60.63,60.63C94.41,26.85,139.32,8.25,187.09,8.25s92.68,18.6,126.46,52.38c33.78,33.78,52.38,78.69,52.38,126.46s-18.6,92.68-52.38,126.46c-28.99,28.99-66.19,46.79-106.36,51.26l-3.92,3.92-3.9,3.95-1.17,1.17c38.02-2.23,72.98-15.8,101.56-37.39,0,0,0,.02-.01.02,1.05-.73,7.4-1.22,9.85,4.74,1.22,2.98,1.92,5.19,3.32,8.02.79,1.6,3.06,4.58,4.41,5.75,3.76,3.26,7.62,4.67,10.7,8.66,1.41,1.82,1.97,3.77,1.69,5.18-.42,2.12-1.54,3.33-2.85,4.67-1.58,1.63-2.78,3.51-3.34,5.74-1.07,4.24.5,8.94,4.22,11.38,2,1.31,5.12,1.66,7.44.98,4.38-1.27,7.06-4.78,8.03-9.15.64-2.89.54-5.93-.11-8.81-.61-2.68-1.62-5.26-2.79-7.74-2.24-4.74-5.01-9.26-6.75-14.22-1.31-3.73-1.61-7.66-.88-11.55.89-4.76,3.64-9,5.85-10.79,2.21-1.79,5.21-2.35,7.11-2.35,2.4,0,5.15,1.22,6.62,3.78,1.1,1.91,1.21,4.11.16,7.28-.38,1.13-.97,2.32-1.85,3.11-.77.69-1.69,1.27-1.54,2.46.28,2.19,3.51,2.16,4.63.72.74-.96,1.29-1.98,1.9-3.06,1.4-2.49,4.99-3.74,7.65-1.93,2.09,1.43,2.25,4.56,1,6.63Z"/><polygon class="cls-1" points="232.74 331.23 216.25 331.2 187.07 360.38 157.89 331.2 141.39 331.22 178.81 368.64 178.78 368.66 187.04 376.92 187.07 376.9 187.09 376.92 195.35 368.66 195.33 368.64 232.74 331.23"/><circle class="cls-1" cx="187.07" cy="291.39" r="8.5"/><path class="cls-2" d="M293.44,276.19l-.38.53s.18-.21.38-.53Z"/><polygon class="cls-1" points="236.06 215.61 241.5 215.61 241.5 222.18 242.84 222.18 242.84 214.06 234.51 214.06 234.51 216.6 236.06 216.6 236.06 215.61"/><path class="cls-1" d="M175.98,272.17c-.82-.09-1.56.52-1.64,1.34-.08.83.52,1.56,1.34,1.64l11.39,1.13c.05,0,.1,0,.15,0,.76,0,1.41-.58,1.49-1.35.08-.83-.52-1.56-1.34-1.64l-11.39-1.13Z"/><path class="cls-1" d="M121.69,269.6l.22.11c3.96,2.05,14.37,7.05,25.56,9.09l.6.11.5-.34c.58-.39,4.96-4.02,6.29-5.13.64-.53.72-1.48.19-2.11-.53-.64-1.48-.73-2.11-.19-2.16,1.8-4.57,3.78-5.59,4.59-10.54-2.04-20.31-6.73-24.07-8.68-.21-.11-.34-.17-.37-.19-.75-.32-1.6.02-1.94.76-.34.74-.02,1.62.71,1.98Z"/><path class="cls-1" d="M211.22,236.64l-2.08-.07v-3.58h-3.94v3.94h-2.58l-.07,5.08h2.5v5.79s3.65.08,3.65.08v-6.01h2.5c.73-.5.74-4.74,0-5.22Z"/><rect class="cls-1" x="144.34" y="267.99" width="3.79" height="4.58" rx=".94" ry=".94"/><rect class="cls-1" x="139.05" y="266.85" width="3.7" height="4.47" rx=".94" ry=".94"/><rect class="cls-1" x="133.9" y="265.64" width="3.7" height="4.47" rx=".94" ry=".94"/><rect class="cls-1" x="130.07" y="264.62" width="2.98" height="3.6" rx=".94" ry=".94"/><rect class="cls-1" x="126.72" y="263.67" width="2.44" height="2.94" rx=".94" ry=".94"/><path class="cls-1" d="M124.42,262.87h1.25c.26,0,.47.21.47.47v1.37c0,.26-.21.47-.47.47h-1.25c-.26,0-.47-.21-.47-.47v-1.37c0-.26.21-.47.47-.47Z"/><path class="cls-1" d="M121.36,262.08h1.25c.26,0,.47.21.47.47v1.37c0,.26-.21.47-.47.47h-1.25c-.26,0-.47-.21-.47-.47v-1.37c0-.26.21-.47.47-.47Z"/><path class="cls-1" d="M197.04,257.46h2.65c.26,0,.47.21.47.47v3.34c0,.26-.21.47-.47.47h-2.65c-.26,0-.47-.21-.47-.47v-3.34c0-.26.21-.47.47-.47Z"/><path class="cls-1" d="M202.3,256.93h2.65c.26,0,.47.21.47.47v3.34c0,.26-.21.47-.47.47h-2.65c-.26,0-.47-.21-.47-.47v-3.34c0-.26.21-.47.47-.47Z"/><path class="cls-1" d="M207.54,256.26h2.65c.26,0,.47.21.47.47v3.34c0,.26-.21.47-.47.47h-2.65c-.26,0-.47-.21-.47-.47v-3.34c0-.26.21-.47.47-.47Z"/><path class="cls-1" d="M271.51,241.28c.24.3.37.68.39,1.06.02.48.41.86.89.85h.57c.41-.02.73-.36.73-.76l-.03-2.95c0-.3-.09-.59-.25-.84l-4.58-7.2c-.35-.55-1.12-.63-1.57-.17l-1.43,1.46c-.45.45-.49,1.17-.09,1.67l5.4,6.89Z"/><path class="cls-1" d="M173.81,235.8l3.68,8.78c.29.68,1.25.68,1.53,0l5.21-12.51c.31-.74,1.35-.77,1.7-.05l6.29,15.14h2.53l-8.28-19.06c-.12-.27-.11-.57.01-.83.35-.74,1.4-.77,1.79-.05l7.42,13.7c.35.65,1.27.69,1.67.07l10.05-15.36,9.6,10.66,1.48-1.27-5.51-9.53h5.72l-.06-10.58c0-.9.72-1.64,1.63-1.64h4.57c.9,0,1.63.73,1.63,1.63v8.89h-1.75v10.9c.01.48.59.71.92.36l10.57-11.09,3.2,5.46,1.51-.94-4.33-10.16-5.65,5.65h-2.01v-10.92c0-1.35-1.09-2.45-2.45-2.45h-7.71c-1.91,0-3.46,1.55-3.46,3.46v8.78h-5.12v-9.04c0-4.96,1.86-6.47,1.93-6.52.44-.31.56-.93.25-1.38-.31-.46-.93-.58-1.39-.26-.29.19-2.79,2.07-2.79,8.17v2.09h-1.16l.02-12.49s0-2.4-1.91-2.4c-1.39,0-2.38.85-2.79,2.15-.34,1.09-.21,2.22-.23,3.35-.01.56,0,1.11,0,1.67v11.68h1.06l.06-14.66,1.21.02-.06,16.51h-9.98v-9.69h1.68s0,8.64,0,8.64h1.51v-8.64h0s0-.01,0-.02h0s0,0,0,0c-.02-.19-.82-8.95-8.26-9.11-8.54-.19-9.53,9.41-9.53,9.41h3.74l-.07,13.62-4.87,9.04-2.16-6.67h3.1s0-2.01,0-2.01h-7.05l-4.79,17.11h2.71s3.4-7.59,3.4-7.59ZM200.65,224.74l-4.09,11.29-4.94-11.29h9.04Z"/><path class="cls-1" d="M197.88,276.76s.05,0,.07,0l4.59-.21c.83-.04,1.47-.74,1.43-1.57-.04-.83-.73-1.46-1.57-1.43l-4.59.21c-.83.04-1.47.74-1.43,1.57.04.8.7,1.43,1.5,1.43Z"/><path class="cls-1" d="M182.7,154.79c-.83,0-1.5.67-1.5,1.5s.67,1.5,1.5,1.5h17.79c.83,0,1.5-.67,1.5-1.5s-.67-1.5-1.5-1.5h-17.79Z"/><path class="cls-1" d="M179.77,131.13l-.22,21.16h8.66v-30.04l-2.39-3.11c-.63-.87-1.9-.93-2.6-.12l-4.77,5.53c-.85.99-1,2.41-.36,3.55l1.68,3.03Z"/><path class="cls-1" d="M197.81,152.53l7.9.05s0,0,0,0c0,0,0,0,0,0h.09s0,0,0,0c.78-.05,1.41-.69,1.41-1.49v-37.34c0-.38-.14-.74-.39-1.01l-1.55-1.69c-.56-.61-1.51-.65-2.12-.09-.61.56-.65,1.51-.09,2.12l1.16,1.26v7.25l-3.73-3.51c-.72-.6-1.78-.58-2.47.05l-4.72,4.71c-.57.58-.85,1.33-.87,2.09h-.02s0,7.1,0,7.1h5.32l.09,20.52Z"/><path class="cls-1" d="M153.59,278.24c-.79-.26-1.63.18-1.89.97-.25.79.18,1.63.97,1.89.37.12,3.62,1.16,4.79,1.42.11.02.22.04.33.04.69,0,1.31-.48,1.46-1.17.18-.81-.33-1.61-1.14-1.79-.87-.19-3.56-1.04-4.52-1.35Z"/><path class="cls-1" d="M280.64,278.91c-.11.03-10.93,2.93-45.97.81l-1.06-.06.04,11.86.78.16c.44.13,9.8,2.38,26.58,2.38,1.91,0,3.92-.03,6.02-.11l.77-.03c.38-.01.69-.33.69-.71v-10.93c1.08-.05,1.57-.09,2.5-.15v7.99c0,.55.45,1,1,1s1-.45,1-1v-8.14c5.72-.47,8.01-1.09,8.21-1.15.53-.15.84-.7.69-1.23-.15-.53-.7-.84-1.23-.69ZM265.44,291.98c-1.11.03-2.18.06-3.23.07l-1.31-6.94c-.21-.76-1.28-.76-1.5,0l-1.46,6.95c-.5,0-1,0-1.48-.02l-1.36-7.21c-.21-.76-1.28-.76-1.5,0l-1.48,7.07c-.59-.03-1.15-.06-1.71-.1l-1.43-7.61c-.21-.76-1.28-.76-1.5,0l-1.52,7.26c-.54-.05-1.06-.11-1.56-.17l-1.4-7.44c-.21-.76-1.28-.76-1.5,0l-1.43,6.82c-1.47-.25-2.54-.49-3.23-.66v-8.04c13.54.79,21.57.65,28.57.4v9.61Z"/><path class="cls-1" d="M221.05,279.8c.17.04,4.28,1.06,8.83,1.39.02,0,.05,0,.07,0,.52,0,.96-.4,1-.93.04-.55-.37-1.03-.92-1.07-4.37-.32-8.45-1.33-8.49-1.34-.54-.14-1.08.19-1.21.73s.19,1.08.73,1.21Z"/><path class="cls-1" d="M219.31,288.75l5.89,1.47,6.4,1.2.05-2.02-.99-.22s-.04,0-.06,0l-1.17-6.21c-.21-.7-1.28-.7-1.5,0l-1.67,5.5c-.52-.11-1.02-.22-1.49-.32l-1.39-6.79c-.21-.7-1.28-.7-1.5,0l-1.53,5.63-1.01-.12-.03,1.89Z"/><path class="cls-1" d="M186.04,240.39c-.21,0-.4.09-.53.26l-2.88,3.83v6.01l4.96,1s.02-11.08.02-11.08l-1.58-.02Z"/><polygon class="cls-1" points="172.49 242.43 172.49 248.51 175.52 248.51 175.52 245 173.55 242.44 172.49 242.43"/><path class="cls-1" d="M179.25,283.19l-7.27-2.11c-.89-.27-1.5-1.09-1.5-2.02l-.04-20.06c0-.92.85-1.61,1.75-1.41l17.89,4c.95.21,1.62,1.05,1.62,2.02,0,4.14,0,11.93,0,17.44,1.1.5,2.11,1.17,2.99,1.98v-32.43l-3.01-.04s0,3.3,0,6.58c0,.89-.82,1.55-1.69,1.36l-18.05-4.04c-.89-.2-1.53-.99-1.53-1.9v-6.21h-2.93l-.93,31.68c0,.89-.83,1.55-1.69,1.35l-1.51-.35.04,3.68,13.41,3.9c.6-1.29,1.44-2.44,2.45-3.41Z"/><path class="cls-1" d="M158.46,264.43l-.05,4.61-2.12-.66v-2.12l1.13-1.04v-23.58l-2.4-1.27v1.69l-1.84,1.27-26.82-1.55v1.55l25.27,2.12v7.76l-26.68-3.11v.23c0,.63.38,1.2.97,1.44l7.19,2.96c.68.28,1.12.94,1.12,1.67v1.78c0,.79-.69,1.4-1.47,1.3l-9.26-1.11c-.57-.07-1.08.38-1.08.96v.44c0,.53.38.98.91,1.07l30.86,5.21v3.81l4.19.99-.05,7.39,4.75.66v-12.85l-4.61-1.65ZM139.39,260.4l-2.2-.33.02-4.04,2.2.33-.02,4.04ZM144.32,261.18l-2.6-.42.02-5.38,2.6.42-.02,5.38ZM149.04,261.89l-2.2-.33.02-4.04,2.2.33-.02,4.04Z"/><path class="cls-1" d="M187.07,42.45c-79.71,0-144.57,64.85-144.57,144.57,0,68.71,48.18,126.37,112.53,140.98l4.13-7.79s-.05-.01-.07-.02c-1.58-.33-3.15-.69-4.7-1.07-.19-.05-.37-.1-.56-.14-1.28-.32-2.56-.66-3.83-1.02-.46-.13-.91-.27-1.37-.4-1.01-.3-2.01-.6-3-.92-.51-.16-1.02-.33-1.53-.5-.98-.33-1.96-.67-2.93-1.02-.47-.17-.94-.33-1.4-.5-1.34-.5-2.67-1.01-3.99-1.55-.55-.23-1.1-.47-1.65-.7-.8-.34-1.6-.68-2.39-1.03-.68-.3-1.34-.61-2.01-.92-.65-.3-1.29-.61-1.93-.92-.71-.35-1.43-.7-2.13-1.05-.56-.28-1.12-.58-1.67-.87-.76-.4-1.52-.79-2.26-1.2-.16-.09-.31-.18-.47-.26-1.88-1.04-3.72-2.13-5.54-3.25-.31-.19-.62-.37-.92-.57-.86-.54-1.7-1.09-2.55-1.65-.32-.21-.65-.43-.97-.64-.87-.58-1.73-1.17-2.58-1.77-.22-.15-.43-.31-.65-.47-4.03-2.88-7.89-5.97-11.58-9.27-.06-.06-.13-.11-.19-.17-6.71-6.02-12.82-12.7-18.23-19.94h36.04s0,0,0,0c-.19-1.31.26-2.52,1.23-3.91,1.19-1.69,2.15-3.54,2.87-5.48.3-.81.59-1.69,1.28-2.22.95-.73,2.27-.35,3.19-1.09.5-.4.72-1.05.81-1.69.07-.49.04-.91-.05-1.28-.23-.96-.43-1.92-.43-2.91v-7.35c0-.98.45-1.91,1.23-2.5.06-.05.12-.09.19-.13.98-.68,1.64-.88,1.65-2.13.01-.98.03-1.97.31-2.91.71-2.37,3.68-3.4,5.36-5.04,1.05-1.03,1.38-2.45,1.25-3.77-.34-3.49,2.72-3.93,4.61-2.8.52.31,1.42.56,2.02.43,1.84-.42,1.56-2.23,4.78-.48,1.74.24,2.42-1.25,2.01-2.39-.07-.76-.66-1.32-1.04-1.98-.96-1.67-3.88-.99-4.06-2.47,0-.08,0-.13.01-.19.05-.89,1.25-.59,1.82-.66,0,0,0,0,.01,0,.08-.01.15-.03.2-.07,0,0,0,0,0,0,.95-.68.32-1.64,1.23-2.38.76-.62,1.4-1.36,2.32-1.77,1.64-.73,3.43.45,5.14-.08,1.19-.37,2.13-1.4,3.58-1.42,0,0,0,0,0,0l-.06,2.68h0l-.08,3.69h0l-.33,14.66v.21s-3.88.01-3.88.01c0,0,0,0,0,0l-6.84-6.67c-.47-.47-1.24-.46-1.71.02-.23.23-.35.54-.34.86,0,.32.13.62.36.85l2.4,2.34s0,0,0,0l-1.7,2.52h0v3.31s0,0,0,0h-2.52s0,0,0,0v-.53c0-.89-.31-1.74-.88-2.42l-2.96-3.54c-.46-.55-1.29-.59-1.8-.08l-2.57,2.57c-.23.23-.35.53-.35.85s.13.63.35.85c.23.23.53.35.85.35s.63-.13.85-.35l1.15-1.15c.27-.27.7-.25.94.04l1.14,1.36c.55.66.85,1.49.85,2.35v3.1c0,.67.54,1.21,1.21,1.21s1.21-.54,1.21-1.21v-1.15h4.95s0,0,0,0v-2.26h0v-2.57h0s1.03-1.53,1.03-1.53c0,0,0,0,0,0l3.33,3.23s0,0,0,0v5.7c0,.67.54,1.21,1.21,1.21s1.21-.54,1.21-1.21l.09-5.39s0,0,0,0l2.66,1.83h0s4.53,4.1,4.53,4.1c0,0,0,0,0,0v21.65s0,0,0,0h3.73s0,0,0,0l-.09-24.47s0,0,0,0l-1.55-1.9c-.97-1.19-.68-2.97.63-3.78l9.02-5.62s0,0,0,0l.54-23.25s0,0,0,0c0,0,0,0,0,0l-1.06.81-6.89,5.29c-.18.14-.4.21-.61.21-.3,0-.6-.13-.79-.39-.34-.44-.25-1.07.18-1.4l9.22-7.08.02-1.07.94-40.75s0,0,0,0l-2.44,2.27-3.97,3.68h0l-6.12,5.68c-.19.18-.44.27-.68.27-.27,0-.54-.11-.73-.32-.38-.41-.35-1.04.05-1.41l13.96-12.95s0,0,0,0l.09-4.06.04-1.62.85-36.73s0,0,0,0l-2.16,1.74h0l-5.93,4.77c-.18.15-.41.22-.63.22-.29,0-.58-.13-.78-.37-.35-.43-.28-1.06.15-1.41l9.4-7.57s0,0,0,0l.29-12.58h0s1.93-3.15,1.93-3.15c0,0,0,0,0,0l-.02-9.37s0,0,0,0l3.47-3.15s0,0,0,0l-2.33-10.93h0l-.78-3.69h0l-1.39-6.55h.02l-.78-3.69h-.02l-.29-1.35c-.09-.44-.72-.43-.8,0l-.27,1.35h-26.21c12.63-3.88,26.05-5.97,39.95-5.97s27.32,2.09,39.95,5.97h-50.64l.81,3.69h28.9l-1.28,6.55h-26.19l.81,3.69h11.69l-2.1,7.04h-8.04l.81,3.69h6.49l2.22,2.3v4.82h0v3.68h0v4.42h-1.7l-1.07-4.42h0l-.89-3.68h0l-1.34-5.54c-.26-.87-1.5-.84-1.72.04l-1.19,5.5h0l-.79,3.68h0l-.86,3.98s-2.69-3.42-4.16-.55l2.54,3.39c.09.12.19.21.3.29h0c.12.09.25.15.38.2.02,0,.05.02.07.03.14.04.29.07.44.07h3.37v3.38h0v.7c0,.83.67,1.5,1.5,1.5s1.5-.67,1.5-1.5v-4.08h2.93v3.38h0v.8c0,.83.67,1.5,1.5,1.5s1.5-.67,1.5-1.5v-4.18h2.72v3.38h0v.73c0,.83.67,1.5,1.5,1.5s1.5-.67,1.5-1.5v-4.11h2.52v3.38h0v4.16h-21.42c-.83,0-1.5.67-1.5,1.5s.67,1.5,1.5,1.5h5.67l3.73,6.57c.27.47.96.43,1.17-.08l3.35-6.5h7.51v.04h.64c.81,0,1.47-.66,1.47-1.47v-1.73l3.6-2.37.07-2.75-1.11-1.48-.8-1.06-.09-.12s.08-.07.11-.11l2.29-2.71,2.12,2.93.56.77v2.91h0v7.51h0v3.68h0v8.55h0v3.69h0v7.8h0v3.68h0v9.21h0v3.69h0v9.11h0v3.68h0v9.21h0v3.69h0v9.49h0v3.69h0v7.55c-.96-.89-1.92-1.78-2.84-2.66-.78-.75-1.21-1.79-1.21-2.87v-28c0-.29-.09-.57-.24-.8-.01-.02-.03-.03-.04-.05-.06-.08-.12-.17-.2-.24-.09-.09-.2-.17-.32-.23-.49-.26-1.08-.23-1.54.07l-1.74,1.16h0l-1.86,1.24c-.69.46-.88,1.39-.42,2.08.46.69,1.39.88,2.08.42l1.27-.85v6.32h0v3.69h0v9.49s0,0,0,0v3.69h0v1.96c0,1.29-.66,2.48-1.74,3.18-.38.24-.76.49-1.14.73-.94.6-2.03.93-3.15.93-.54,0-1.11,0-1.68,0v-1.82l-.54-.64c-.57-.67-.51-1.66.13-2.26l.51-.48v-9.6l-5.87-5.21-.03-.03c-.28-.29-.3-.74-.05-1.05.27-.33.75-.37,1.08-.11l4.82,4.28h1.79v-1.08c0-.93-.21-1.84-.61-2.67-.11-.23-.23-.46-.36-.67,0,0,0,0,0-.01-.21-.33-.46-.7-.73-1.09,0,0-.01-.01-.02-.02-1.41-1.97-3.59-4.33-6.09-4.33-2.08,0-3.99,1.56-5.44,3.15h0s0,0,0,0c-.54.59-1.02,1.19-1.42,1.71,0,0,0,0,0,0,0,0,0,0,0,0-.22.29-.41.61-.58.93,0,.01,0,.02-.01.03-.16.32-.29.65-.4.99,0,0,0,0,0,0h0c-.18.58-.28,1.18-.28,1.79v1.31h1.42c.98.31,1.17,1.21,1.17,2.24v4.16h0v3.69h0v6.81c-2.76,0-5.39-.03-7.65-.06-.82,0-1.49.67-1.5,1.5,0,.66.42,1.21,1.01,1.41.03.01.06.02.09.03.13.04.26.06.4.06,3.84.01,7.67-.1,11.51-.08l11.51.06c.27,0,.54-.07.78-.22,0,0,2.84-1.79,2.84-1.79,0,0,.01,0,.02-.01,1.09-.68,2.49-.56,3.44.31.54.49,1.08.99,1.62,1.49.62.57,1.23,1.15,1.84,1.73.09.08.17.16.26.25.6.57,1.2,1.15,1.78,1.71.08.08.17.16.25.24.57.56,2.58,2.86,3.71,2.85,1.58-.01,2.39-1.94,3.56-3.1.16-.16.33-.31.51-.43.01,0,.02-.01.04-.02.18-.12.36-.22.56-.29,0,0,0,0,0,0,.19-.07.37-.1.55-.13.05,0,.11,0,.16,0,.12,0,.24-.01.35,0,.05,0,.11.01.16.02.12.02.24.04.36.07.04,0,.07.02.11.03.82.25,1.61.78,2.76,1.04,1.02.27,2.55.24,3.33-.61.25-.24.42-.43.57-.59.41-.42.07-.13.56-.35,2.07-.62,3.99.23,6.67.23.93-.07,1.59-.92,1.47-1.84-.35-3.14-.18-7.07,1.07-10.29.14-.35.28-.69.44-1.02,0,0,0,0,0,0,.16-.32.33-.63.51-.93,0-.01.01-.03.02-.04.19-.3.38-.59.6-.87,0,0,0,0,0-.01.22-.28.45-.55.7-.8.46-.47.98-.89,1.56-1.24,2.98-1.59,5.55-.65,7.69,1.24.29.25.56.52.84.8.02.02.04.04.06.06.25.26.49.53.73.82.03.03.06.07.09.1.23.28.45.56.67.85.02.03.05.07.07.1.23.31.46.63.68.95h0c.66.97,1.25,1.95,1.77,2.85.59,1.07,2.3.96,2.74-.2.41-.91.88-1.8,1.38-2.66.38-.65.77-1.28,1.19-1.9,0,0,.01-.02.02-.02.42-.61.86-1.2,1.33-1.76.41-.49.82-.98,1.26-1.44,2.19-2.32,5.08-3.33,8.04-4.61,1.42-.57,1.31-2.81-.18-3.22-.17-.06-.32-.15-.48-.23h0c-.17-.09-.33-.18-.48-.29-.02-.01-.03-.02-.05-.04-.15-.11-.29-.22-.42-.34,0,0,0,0,0,0-.39-.36-.71-.78-.97-1.25-.03-.05-.06-.1-.08-.15-.06-.12-.12-.25-.17-.37-.03-.08-.07-.16-.1-.24-.04-.12-.09-.24-.13-.36-.03-.09-.05-.19-.08-.29-.03-.12-.06-.24-.09-.36-.45-2.19.11-4.73,1.5-6.28,3.35-3.94,8-2.14,12.31-1.32,2,0,2.16-1.63,2.29-3.37.05-.65.1-1.32.25-1.92.05-.19.1-.38.17-.55,1-4.05,3.91-6.78,7.42-8.92.75-.52.98-1.55.5-2.34-.94-1.59-1.83-3.14-2.36-4.69-.55-1.88-.73-3.73-.61-5.51h0c.02-.3.05-.6.09-.9,0-.02,0-.05,0-.07.04-.27.08-.54.13-.8.01-.06.02-.13.04-.19.05-.25.11-.49.17-.73.02-.08.04-.16.06-.24.06-.24.13-.47.21-.7,1-3.09,2.95-5.81,5.48-7.88,2.15-1.75,4.71-3.03,7.47-3.66h-.04c1.39-.32,2.82-.47,4.28-.44,0,0,0,0,0,0,.02,0,.03,0,.05,0,0,0,0,0,.01,0,10.37,19.21,16.26,41.19,16.26,64.54,0,8.55-.8,16.9-2.3,25.01-.03.04-.05.08-.08.13,0,0,0,0,0,0-.05.09-.11.17-.16.26h0c-.1.15-.2.29-.3.43,0,0,0,0,0,0-.1.13-.19.25-.3.37-.01.02-.03.03-.04.05-.1.11-.2.21-.3.31-.01.01-.03.03-.04.04-.23.21-.49.39-.77.54-.04.02-.08.03-.11.05-.11.05-.21.09-.33.13-.05.02-.1.03-.15.05-.11.03-.23.06-.36.08-.05,0-.1.02-.16.03-.18.02-.36.04-.56.04-1.21,0-2.55-.19-3.52.69-.14.13-.27.28-.38.43-.1.14-.2.3-.29.45,0,0,0,0,0,0h0c-.22.39-.41.81-.65,1.2-.8,1.32-2.13,2.22-3.06,3.44-.82,1.08-1.39,2.5-1.38,3.87,0,.36.15.76.1,1.12-.07.47-.53.77-.88,1.02-.36.25-.67.21-.96.08v-11.02h2.12v-1.88s0-.02-.02-.05c0-.01,0-.02-.01-.04,0,0,0-.02-.01-.03-.02-.06-.05-.15-.09-.25,0-.01,0-.03-.01-.04-.03-.1-.08-.23-.12-.36-.02-.05-.04-.1-.06-.16-.06-.17-.12-.36-.2-.57-.66-1.91-1.86-5.45-3.17-9.42-.39-1.19-.79-2.42-1.19-3.66-1.07-3.34-2.12-6.73-2.9-9.52-.09-.34-.18-.66-.27-.98,0-.02,0-.03-.01-.05-.08-.31-.17-.62-.24-.91,0-.01,0-.02,0-.04-.08-.3-.15-.59-.22-.87,0,0,0,0,0,0-.07-.28-.13-.55-.19-.8-.03-.12-.06-.26-.08-.37-.06-.28-.45-.28-.5,0-.02.12-.04.24-.07.37h0c-.18,1.03-.45,2.28-.78,3.69h0c-.66,2.79-1.55,6.15-2.5,9.49h0c-.35,1.24-.71,2.48-1.07,3.68h0c-1.11,3.76-2.2,7.19-2.98,9.39h0c-.12.33-.22.62-.32.89,0,.02-.02.05-.03.07-.1.26-.19.5-.27.69,0,.21.01.4.02.59,0,.05,0,.09,0,.14,0,.16,0,.31,0,.45,0,.02,0,.04,0,.06,0,.16,0,.31,0,.44,0,.01,0,.02,0,.03,0,.13,0,.24,0,.32h0c0,.15,0,.23,0,.23h1.55v5.84h-4.81l-6.72-15.25c-.08-.32-.53-.33-.63-.02l-2.07,5.52h0l-1.38,3.69h0l-1.67,4.47h-.41v-7.95h0s-13.88,0-13.88,0v3.48h0v4.85h-.84l-5.15-10.59c-.16-.38-.7-.4-.88-.03l-1.19,2.09h0l-2.1,3.69h0l-1.42,2.49h-.36v-2.02h-1.93v4.56l-2.21,1.36v2.07h15.56l-1.04,4.58c-.14.62.17,1.25.74,1.52.29.13.59.28.84.4l-2.55,5.58c-.15.34-.04.74.26.95.37.26.89.14,1.11-.26l7.77-13.86c.21-.38.75-.39.97-.02l10.65,17.48,6.87-7.05c.28-.29.75-.29,1.03,0l4.14,4.18,1.22-1.41-2.07-2.82,1.88-3.29h1.84v-12.24h4.33v13.76c-.32.36-.73.64-1.12.93-1.45,1.07-1.82,2.97-1.85,4.68,0,.63-.04.9-.55,1.31-1.34,1.05-1.41,2.75-1.06,4.29.18.77.33,1.63.27,2.42-.04.53-.22,1.08-.59,1.46-.95.98-2.49.72-3.66.32-1.47-.51-2.83-1.14-4.42-.99-1.45.14-2.86.79-3.84,1.89-.42.47-.8,1.18-1.38,1.46-.62.3-1.4.15-1.96-.21-.46-.3-.85-.69-1.34-.94-.57-.3-1.26-.38-1.89-.22-.71.18-1.31.62-1.96.94-.68.34-1.44.4-2.16.61-.33.1-.68.21-.89.48-.13.17-.19.39-.23.6-.12.6-.18,1.21-.43,1.77-.25.56-.63,1.05-.76,1.66-.26,1.23.58,2.87,1.5,3.67.29.25.58.55.61.93.04.43-.29.83-.69.98-.86.32-1.64-.27-2.41-.54-.41-.15-.86-.17-1.24-.37-.4-.21-.68-.59-.84-1.01-.18-.48-.2-1.02-.12-1.52.29-2.03-2.09-3.08-3.78-3.31-.61-.08-1.29-.1-1.88.05-.72.19-1.4.56-2.16.36-.63-.17-1.12-.73-1.28-1.36-.51-1.95,1.86-2.94,2.84-4.23.83-1.1,1.13-2.54.94-3.89-.11-.78-.38-1.41-.86-2.04-.41-.54-.89-1.05-1.2-1.66-.46-.91-.55-1.9-1.35-2.64-.95-.88-2.3-.5-3.35-.53-1.38-.04-1.24-1.34-.64-3,.27-.74-.29-2.16-.46-2.93-.45-2.06-1.91-3.92-4.45-4.16-3.55-.34-6.95,1.85-6.95,5.22,0,.53.49,1.49-.19,1.81-.66.31-1.14-.68-1.55-1.01-.76-.61-1.96-.76-2.9-.65-1.84.22-3.56,1.63-3.95,3.47-.6,2.85,1.02,5.28,3.68,5.95,1.91.49,1.2,3.42.67,4.09-.5.64-3.18,2.44-4.11.67.03-.16.05-.33.05-.49,0-1.53-1.16-2.77-2.65-2.92-.27-3.61-3.48-6.41-7.24-5.98-2.64.3-4.89,2.26-5.54,4.84-.36,1.43-.22,2.79.24,3.99-3.49.48-6.17,3.46-6.17,7.08,0,2.41,1.19,4.53,2.7,6.19,1.09,1.2,0,3.56-2.82,3.37-.1,0-.19-.01-.29-.01-3.59,0-6.74,3.11-6.74,6.71,0,3.13,2.22,6.07,5.38,6.17.26,1.85,2.18,2.91,3.93,2.91.85,0,1.64-.3,2.31-.78v1.81c-.74.55-1.71,1.56-2.18,3.22-3.03-1.88-5.87-.98-7.59.64-.11.1-.27.14-.4.1-4.19-1.34-6.7.93-7.44,2.32-.39.72-.12,1.6.6,2,.23.13.48.19.72.19.52,0,1.03-.27,1.31-.75.18-.3,1.2-1.76,3.9-.9,1.18.38,2.47.08,3.37-.77.72-.68,2.69-1.94,5.44.98.01.01.03.02.04.03.5,1.92,1.8,3.95,3.7,5.69,2,1.84,5.54,4.16,11.02,4.76,3.96.44,8.12.78,12.15,1.12,4.94.41,9.6.8,12.64,1.27,3.39.52,4.82,1.71,5.73,3.03,0,0,0,0,0,0,0,.01.02.03.03.04-4.65,2.88-9.48,5.49-14.48,7.8,0,0,0,0,0,0-4.75-2.16-9.82-2.73-14.89-3.69-9.16-1.73-18.33-3.52-27.47-5.46l2.11,3.98c8.22,1.8,16.47,3.46,24.7,5.01,3.97.68,7.88,1.6,11.87,1.8-8.13,3.47-16.66,6.17-25.51,8.02l4.12,7.77c64.33-14.63,112.5-72.28,112.5-140.98,0-79.71-64.85-144.57-144.57-144.57ZM101.08,81.57h56.47l-1.3,7.12h-63.24c2.59-2.48,5.28-4.85,8.06-7.12ZM82.97,218.33c-.05.08-.29.1-.38.13-.27.1-.52.25-.74.42-.67.53-.99,1.3-1.07,2.13-.02.2-.03.4-.03.59,0,.18.06.42.02.6-.39,1.73-2.02,1.44-2.29-.11-.16-.91-.64-1.72-1.34-2.42-.82-.82-2.01-1.05-3.04-.71-.18-.24-.37-.46-.58-.68-2.51-2.51-6.59-2.51-9.1,0-1.24,1.24-1.86,2.85-1.88,4.47,0,0,0,0,0,0-1.75-.06-3.53.6-4.85,1.97-.39.41-.71.87-.97,1.35-.98-3.28-1.85-6.6-2.59-9.98h28.26s0,.1.01.15c.07.41.17.82.3,1.21.06.19.13.38.2.56.03.08.13.22.07.3ZM134.37,216.43c-.89.72-1.91,1.29-2.76,2.06-2.04,1.84-2.47,5.31-2.05,7.88.08.5.2,1.01.15,1.52-.15,1.4-1.7,1.68-2.85,1.45-1.24-.24-2.49.04-3.28,1.14-.34.48-.48,1.41-1,1.66-.64.31-1.34.45-2,.08-.36-.2-.64-.55-.73-.95-.07-.3-.03-.62,0-.92.17-1.45-.23-2.48-1.02-3.69-1.26-1.93-2.77-3.64-5.33-3.26-1.25.18-2.4.91-3.1,1.96,0,0,0,0,0,0,.52-1.57.17-3.37-1.08-4.62-1.45-1.45-3.73-1.73-5.5-.71-.64.37-1.18.92-1.55,1.56-.17.31-.35.72-.74.79-.39.07-.81-.16-1.13-.36-.45-.29-.86-.68-1.09-1.16-.26-.54-.22-1.12-.13-1.69.14-.81.31-1.59.29-2.41,0-.21-.03-.42-.05-.63h35.34c-.14.11-.28.21-.42.32ZM155.7,206.69s0,0,0,0c-.92.02-1.88.11-2.76.29-.33.07-.65.17-.97.29-.81.3-1.59.7-2.44.91-.86.21-1.76.22-2.64.39-1.22.24-2.42.89-3.32,1.75-.32.3-.51.7-.84.99-.53.48-1.3.76-1.93,1.09-.01,0-.02.01-.03.02h-42.02c-.19-.62-.43-1.23-.75-1.79-.91-1.56-2.32-2.81-3.98-3.51-1.35-.58-2.84-.78-4.3-.61-3.32.38-6.1,2.78-7.07,5.92h-29.28c-.58-3.09-1.06-6.23-1.44-9.39h103.84l-.08,3.66ZM155.87,199.35H51.56c-.28-3.13-.46-6.3-.53-9.49h105.05l-.22,9.49ZM156.17,186.17H51.01c.02-3.19.14-6.36.38-9.49h105l-.22,9.49ZM156.47,172.99H51.72c.32-3.1.75-6.17,1.27-9.21h103.69l-.21,9.21ZM156.76,160.1H53.67c.62-3.08,1.34-6.11,2.16-9.11h101.14l-.21,9.11ZM157.05,147.3H56.9c.95-3.12,2.01-6.19,3.18-9.21h97.19l-.21,9.21ZM157.35,134.41H61.55c1.11-2.64,2.31-5.24,3.57-7.8h92.4l-.18,7.8ZM157.61,122.92h-90.59c1.56-2.92,3.22-5.77,4.98-8.55h85.8l-.19,8.55ZM157.9,110.08v.61h-83.48c1.74-2.57,3.57-5.08,5.48-7.51h78v6.91ZM157.9,99.49h-75c2.06-2.45,4.2-4.82,6.43-7.12h66.86l1.71,1.58s0,0,0,0v5.54ZM158.23,77.88h-52.43c3.36-2.5,6.83-4.85,10.42-7.04h43.3l-1.28,7.04ZM171.86,88.69h-5.23l.77,3.68h4.46v2.24s0,0,0,0l-5.35,4.88h0l-4.18,3.84v-.03s0,0,0,0c0,0,0,0,0,0v-.13s0,0,0,0v-3.69h-.02l-.02-5.73s0,0,0,0l.91-.76,1.2-1.03-3.11-15.86h0l-1.03-5.26h10.32l-1.39,7.04h-4.83l.77,3.69h3.33l-.02.11s0,0,0,0l3.42,3.39s0,0,0,0v3.62ZM172.6,60.61l-1.29,6.55h-48.67c4.53-2.44,9.21-4.63,14.02-6.55h35.95ZM205.12,94.42l-2.01,2.37h-.05l-2.65-4.42h4.71v2.05ZM205.12,88.69h-9.4v3.68h2.48l-2.46,4.42h-2.02v-4.42h0v-3.68h0v-4.77l2.46-2.35h0l.2-.19-1.66-5.31-1.68-5.23h11.04l-1.38,7.04h-5.23l1.13,3.69h5.58l.94,1.06v6.05ZM299.71,110.69h-86.78v-7.51h81.3c1.91,2.44,3.74,4.95,5.48,7.51ZM212.64,98.9l-3.83-5.29v-1.24h0v-3.68h0v-6.5l.55-.57,1.91-2.04-3.05-14.56h0s-.93-4.41-.93-4.41h30.18c4.82,1.92,9.49,4.11,14.02,6.55h-40.7l.84,3.69h46.28c3.58,2.19,7.06,4.54,10.42,7.04h-55.19l.8,3.69h59.1c2.78,2.27,5.47,4.64,8.06,7.12h-70.47v3.68h74.17c2.22,2.3,4.37,4.67,6.43,7.12h-78.34c-.04-.21-.11-.42-.24-.59ZM233.89,198.21c0,.22-.18.38-.4.37-2.02-.11-4.42-.3-6.2.77h-4.96c-.99-.28-1.89-.24-2.72,0h-6.68v-9.49h22.16c-.83,2.69-1.14,5.65-1.2,8.36ZM266.03,178.32c-3.74,1.85-6.55,4.46-8.74,7.85h-3.43c-3.16-3.73-8.27-6.05-13.05-3.92-1.77.93-3.1,2.3-4.09,3.92h-23.79v-9.49h52.55c.2.38.42.75.68,1.09.14.19.08.45-.13.55ZM264.71,168.73c-.35,1.34-.45,2.82-.3,4.26h-51.48v-9.21h54.47c-1.21,1.43-2.13,3.12-2.69,4.95ZM282.6,154.12c-1.1,1.86-1.95,3.84-2.63,5.88-.01.04-.03.07-.06.1h-.93c-1.7-.47-3.51-.69-5.32-.3-.31.08-.6.2-.89.3h-59.84v-9.11h72.3c-1.01.93-1.93,1.96-2.62,3.14ZM212.93,147.3v-9.21h72.32c0,.17-.03.35-.03.52-.28,2.98.7,6.01,2.07,8.68h-74.36ZM285.82,134.41h-72.89v-7.8h77.03c-1.93,2.23-3.37,4.87-4.13,7.8ZM294.11,122.92h-81.18v-8.55h89.2c1.02,1.61,1.99,3.26,2.95,4.92-3.93.15-7.74,1.46-10.96,3.63ZM272.86,223.12h-1.74l-1.51-2.31h-6.12v-4.7h9.36v7.01ZM261.18,301.1c-1.19-1.76-3.23-3.68-7.81-4.38-3.14-.48-7.85-.88-12.84-1.29-4.01-.33-8.15-.68-12.07-1.11-8.18-.9-12.29-6.36-12.29-9.17,0-2.37,1.4-3.06,1.53-3.12l.94-.38v-8.12l.04-.03s9.3,3.04,34.12,3.04,28.08-1.3,34.86-4.65c3.12-1.54,4.58-.79,5.43.35-9.03,11.22-19.81,20.98-31.92,28.87ZM303.97,227.38c-.06.12-.12.23-.18.38-.21.49-.58,1.51-1.24,1.51-.43,0-.73-.47-1.16-.55-.22-.04-.43.04-.63.14v-9.83h3.2v8.35Z"/><path class="cls-1" d="M152.4,345.06l-6.52,12.31c-.41.75.67,1.42,1.15.71,1.87-2.74,4.51-6.85,7.28-11.24l-1.91-1.78Z"/><path class="cls-1" d="M228.25,357.31l-6.49-12.26-1.9,1.78c2.76,4.37,5.38,8.45,7.25,11.19.48.71,1.56.05,1.15-.71Z"/><path class="cls-1" d="M211.33,333.24l2.79-2.61-17.92-33.83c-1.86,3.11-5.25,5.21-9.13,5.21s-7.25-2.08-9.11-5.18l-17.92,33.82,2.79,2.61c1.92-3.05,3.5-5.55,4.42-6.92,5.79-8.61,10.39-8,10.39-8l9.44-15.66,9.4,15.6s4.6-.61,10.39,8c.93,1.38,2.52,3.89,4.45,6.96Z"/><path class="cls-1" d="M173.19,298.34l1.31-2.76c-.07-.02-.14-.03-.2-.05-8.72-2.23-17.37-4.69-25.91-7.46-6.47-2.12-12.98-4.52-19.15-7.42-3.55-1.83-7.37-3.59-10.25-6.39-.17-.23-.49-.3-.73-.11-.21.17-.25.48-.08.7,1.43,1.68,3.15,2.85,4.94,4.05,3.96,2.61,8.59,4.84,12.93,6.75,11.25,4.98,23.46,8.86,35.3,12.18.58.16,1.17.33,1.75.49.03,0,.07.02.1.03Z"/></svg>